<svg xmlns="http://www.w3.org/2000/svg" xmlns:xlink="http://www.w3.org/1999/xlink" width="203" height="78.062" viewBox="0 0 203 78.062"><defs><linearGradient id="linear-gradient" x1=".954" x2="-.029" y1="-.15" y2="1.079" gradientUnits="objectBoundingBox"><stop offset="0" stop-color="#f6f621"/><stop offset=".431" stop-color="#cf6451"/><stop offset=".665" stop-color="#854a93"/><stop offset="1" stop-color="#4998c3"/></linearGradient></defs><g id="Group_5059" data-name="Group 5059" transform="translate(-848.5 -46.937)"><path id="Path_14507" fill="url(#linear-gradient)" d="M69.092,76.156c-5.563.022-9.7-1.586-12.026-4.771-3.312-4.539-2.423-11.744,2.5-20.287a1.516,1.516,0,1,1,2.627,1.514c-4.29,7.441-5.24,13.473-2.678,16.986,2.794,3.826,9.87,4.574,19.407,2.045,10.148-2.691,21.918-8.684,33.142-16.876,22.409-16.357,36.215-37.2,30.143-45.524-2.794-3.83-9.868-4.576-19.407-2.045-10.148,2.691-21.918,8.684-33.142,16.876a1.517,1.517,0,0,1-1.787-2.451C99.393,13.216,111.52,7.05,122.023,4.265c10.97-2.913,19.008-1.778,22.638,3.192,7.283,9.979-6.248,31.837-30.808,49.762C102.334,65.625,90.206,71.79,79.7,74.575a42.655,42.655,0,0,1-10.612,1.581" data-name="Path 14507" transform="translate(881.896 48.843)"/><g id="Group_4953" data-name="Group 4953" transform="translate(848.5 75.635)"><path id="Path_14491" fill="#fff" d="M.791,16.947,0,22.574H4.784V37.235h6.023V22.574H15.59l-.774-5.627Z" data-name="Path 14491" transform="translate(0 -16.482)"/><path id="Path_14492" fill="#fff" d="M21.964,16.947v7.072H15.993V16.947H9.97V37.235h6.023V29.818h5.971v7.417h6.023V16.947Z" data-name="Path 14492" transform="translate(7.186 -16.483)"/><path id="Path_14493" fill="#fff" d="M28,31.986V29.612h5.679V24.363H28V22.2h7.072l-.723-5.248H22.06V37.235H34.6l.723-5.248Z" data-name="Path 14493" transform="translate(15.9 -16.483)"/><path id="Path_14494" fill="#fff" d="M42.872,24.8l-1.153-.379c-1.48-.465-1.91-.964-1.91-1.566,0-.585.4-1.1,1.5-1.1a13.776,13.776,0,0,1,5.42,1.618l.757-5.317a15.567,15.567,0,0,0-6.023-1.377c-4.457,0-7.33,2.822-7.33,6.522,0,2.874,1.531,5.248,5.007,6.367l1.153.379c1.738.585,2.065,1.084,2.065,1.686,0,.516-.379,1.136-1.738,1.136a11.353,11.353,0,0,1-6.178-2.271l-.74,5.42a14.293,14.293,0,0,0,7.038,1.979c5.317,0,7.468-3.459,7.468-6.694,0-2.547-1.359-5.111-5.334-6.4" data-name="Path 14494" transform="translate(24.29 -16.677)"/><rect id="Rectangle_626" width="6.023" height="20.288" fill="#fff" data-name="Rectangle 626" transform="translate(74.905 0.463)"/><path id="Path_14495" fill="#fff" d="M62.829,16.947H48.8l-.774,5.627H52.8V37.235h6.023V22.574H63.6Z" data-name="Path 14495" transform="translate(34.619 -16.483)"/><path id="Path_14496" fill="#fff" d="M63.927,31.986V29.612h5.679V24.363H63.927V22.2H71l-.723-5.248H57.99V37.235H70.534l.723-5.248Z" data-name="Path 14496" transform="translate(41.798 -16.483)"/><path id="Path_14497" fill="#fff" d="M78.8,24.8l-1.153-.379c-1.48-.465-1.91-.964-1.91-1.566,0-.585.413-1.1,1.514-1.1a13.789,13.789,0,0,1,5.4,1.618l.757-5.317a15.567,15.567,0,0,0-6.023-1.377c-4.457,0-7.33,2.822-7.33,6.522,0,2.874,1.531,5.248,5.007,6.367l1.17.379c1.738.585,2.048,1.084,2.048,1.686,0,.516-.379,1.136-1.738,1.136a11.262,11.262,0,0,1-6.16-2.271l-.757,5.42a14.293,14.293,0,0,0,7.038,1.979c5.334,0,7.468-3.459,7.468-6.694,0-2.547-1.359-5.111-5.334-6.4" data-name="Path 14497" transform="translate(50.188 -16.677)"/><path id="Path_14498" fill="#fff" d="M86.969,16.947H79.38V37.235H85.4V31.9h1.566c4.629,0,7.984-3.166,7.984-7.5,0-4.319-3.355-7.451-7.984-7.451m-.706,9.912H85.4v-4.87h.86a2.445,2.445,0,1,1,0,4.87" data-name="Path 14498" transform="translate(57.215 -16.482)"/><path id="Path_14499" fill="#fff" d="M105.946,29.784c-1.445,1.669-2.977,3.356-4.612,5.007l.671,2.443h6.436Zm-4.319-12.837H94.469L87.93,36.478a113.289,113.289,0,0,0,8.552-8.053l1.583-5.73.843,3.1c1.463-1.635,2.822-3.252,4.044-4.87Z" data-name="Path 14499" transform="translate(63.378 -16.482)"/><path id="Path_14500" fill="#fff" d="M115.05,30.856a8.85,8.85,0,0,1-4.2,1.17,4.768,4.768,0,1,1-.034-9.516,8.6,8.6,0,0,1,3.941,1.015l.843-5.885a12.7,12.7,0,0,0-4.9-.964,11.694,11.694,0,0,0-4.371.826h-.017c-.5.946-1.067,1.927-1.669,2.908a69.978,69.978,0,0,1-5.059,7.107,10.64,10.64,0,0,0,10.944,10.376,12.917,12.917,0,0,0,5.369-1.17Z" data-name="Path 14500" transform="translate(71.775 -16.677)"/><path id="Path_14501" fill="#fff" d="M116.2,31.986V29.612h5.679V24.363H116.2V22.2h7.055l-.723-5.248H110.26V37.235H122.8l.723-5.248Z" data-name="Path 14501" transform="translate(79.472 -16.483)"/></g><path id="Path_14504" fill="#ec4d37" d="M66.293,11.573A5.3,5.3,0,1,1,60.969,6.3h.005a5.3,5.3,0,0,1,5.319,5.276" data-name="Path 14504" transform="translate(888.643 51.476)"/><path id="Path_14505" fill="#fff" d="M67.49,6.879a1.818,1.818,0,1,1-1.824-1.812A1.819,1.819,0,0,1,67.49,6.879Z" data-name="Path 14505" transform="translate(894.524 50.588)"/><path id="Path_14506" fill="#4d95c1" d="M65.481,2.772A2.785,2.785,0,1,1,62.683,0h0a2.785,2.785,0,0,1,2.795,2.772" data-name="Path 14506" transform="translate(891.683 46.937)"/></g></svg>