<svg xmlns="http://www.w3.org/2000/svg" width="145.27" height="145.087" viewBox="0 0 145.27 145.087">
  <g id="fst-wbst" transform="translate(-226.218 -202.717)">
    <g id="Group_2307" data-name="Group 2307" transform="translate(226.218 202.717)">
      <path id="Path_3624" data-name="Path 3624" d="M231.576,327.118l8.79-2.846-.107-2.733-14.04-3.09.121,3.055,8.892,1.674-8.718,2.7.111,2.823,8.929,2.016-8.757,2.342.121,3.066,13.751-4.189-.108-2.735Z" transform="translate(-226.218 -252.084)" fill="#ec4d37"/>
      <path id="Path_3625" data-name="Path 3625" d="M240.142,298.381l-3.033-.783,1.736-6.724-2.589-.668-1.736,6.723-2.663-.687,1.9-7.363-2.589-.668-2.62,10.145,13.465,3.477,2.643-10.238-2.589-.668Z" transform="translate(-227.212 -239.185)" fill="#ec4d37"/>
      <path id="Path_3626" data-name="Path 3626" d="M263.1,246.893a7.833,7.833,0,0,0,4.928,2.539q.239.018.474.018a5.885,5.885,0,0,0,4.24-1.857,5.948,5.948,0,0,0,1.88-3.968,6.491,6.491,0,0,0-1.439-4.276l-.4-.528L270.8,240.8l.266.393a4.087,4.087,0,0,1,.81,2.419,2.89,2.89,0,0,1-.933,2,3.1,3.1,0,0,1-2.636,1.052,5.59,5.59,0,0,1-3.13-1.832,5.358,5.358,0,0,1-1.707-3.151,3.148,3.148,0,0,1,1.008-2.688,3.39,3.39,0,0,1,1.867-1.041,2.466,2.466,0,0,1,1.808.466l.392.267,1.987-1.975-.527-.4a5.148,5.148,0,0,0-3.749-1.111,6.747,6.747,0,0,0-5.625,6.691A7.694,7.694,0,0,0,263.1,246.893Z" transform="translate(-240.893 -216.56)" fill="#ec4d37"/>
      <path id="Path_3627" data-name="Path 3627" d="M291.94,231.4l-2.708-4.791,3.067-1.734a2.114,2.114,0,0,1,1.39-.379,1.863,1.863,0,0,1,.987.935l.53.859c.293.47.573.892.832,1.255a3.357,3.357,0,0,0,.649.771l.3.221,2.671-1.51-.595-1.054-.359.022a.529.529,0,0,1-.3-.038,1.526,1.526,0,0,1-.357-.462l-1.2-1.99a3.106,3.106,0,0,0-2.085-1.582,3.844,3.844,0,0,0-.4-3.23,3.728,3.728,0,0,0-2.59-2.009,5.288,5.288,0,0,0-3.508.819l-5.668,3.2,6.845,12.1Zm-5.566-9.845,3.105-1.755a2.3,2.3,0,0,1,1.467-.4,1.515,1.515,0,0,1,.921.837,1.681,1.681,0,0,1,.286,1.27,1.98,1.98,0,0,1-1,.99l-3.218,1.82Z" transform="translate(-250.265 -208.651)" fill="#ec4d37"/>
      <path id="Path_3628" data-name="Path 3628" d="M326.4,217.866l-.675-2.588-7.45,1.942-.79-3.031,6.718-1.752-.674-2.588L316.81,211.6l-.694-2.662,7.357-1.918-.675-2.588-10.139,2.644,3.508,13.457Z" transform="translate(-263.09 -203.449)" fill="#ec4d37"/>
      <path id="Path_3629" data-name="Path 3629" d="M349.737,212.921l1.324,3.689,3.075-.019-5.084-13.874-2.77.018-5.162,13.939,3.013-.02,1.317-3.7Zm-.947-2.668-2.391.015,1.2-3.372Z" transform="translate(-275.231 -202.717)" fill="#ec4d37"/>
      <path id="Path_3630" data-name="Path 3630" d="M376.22,219.119l2.65-10.915,4.192,1.018.631-2.6-11.178-2.714-.631,2.6,4.193,1.018-2.651,10.914Z" transform="translate(-288.353 -203.226)" fill="#ec4d37"/>
      <path id="Path_3631" data-name="Path 3631" d="M401.8,230.236l1.236-2.372-6.826-3.561,1.449-2.777,6.156,3.212,1.237-2.372-6.157-3.212,1.272-2.438,6.742,3.516,1.236-2.371-9.29-4.846-6.431,12.33Z" transform="translate(-297.115 -207.11)" fill="#ec4d37"/>
      <path id="Path_3632" data-name="Path 3632" d="M441.2,261.188l3.354,5.242,2.253-1.441-3.354-5.242,2.317-1.482,3.831,5.988,2.253-1.441-5.38-8.41L434.757,261.9l1.549,2.421Z" transform="translate(-315.172 -224.764)" fill="#ec4d37"/>
      <path id="Path_3633" data-name="Path 3633" d="M446.973,288.419l3.933.091,1.369,4.062-3.089,2.412.981,2.914,11.585-9.173-.884-2.625-14.855-.537Zm6.775.151,3.58.083-2.817,2.183Z" transform="translate(-319.973 -238.056)" fill="#ec4d37"/>
      <path id="Path_3634" data-name="Path 3634" d="M463.733,310.939a3.211,3.211,0,0,0-2.3,1.067,5.576,5.576,0,0,0-1.053,2.766l-.357,2.258a5.383,5.383,0,0,1-.561,1.992,1.114,1.114,0,0,1-.89.4,1.243,1.243,0,0,1-1.168-.481,3.88,3.88,0,0,1-.611-2.057,3.737,3.737,0,0,1,.453-2.372,2.117,2.117,0,0,1,1.645-.917l.553-.06-.208-2.711-.666.053a4.477,4.477,0,0,0-3.469,1.849,6.5,6.5,0,0,0-.974,4.362,6.26,6.26,0,0,0,1.431,3.816,3.8,3.8,0,0,0,2.936,1.3q.186,0,.377-.015a3.864,3.864,0,0,0,2.644-1.123,5.447,5.447,0,0,0,1.208-2.943l.358-2.259a5.623,5.623,0,0,1,.486-1.86.691.691,0,0,1,.616-.314,1.36,1.36,0,0,1,1.226.432,3.15,3.15,0,0,1,.592,1.83,3.031,3.031,0,0,1-.386,1.934,1.984,1.984,0,0,1-1.4.843l-.515.088.208,2.7.6-.073a4.5,4.5,0,0,0,3.25-1.819,5.722,5.722,0,0,0,.918-3.879,5.556,5.556,0,0,0-1.493-3.633A4.2,4.2,0,0,0,463.733,310.939Z" transform="translate(-323.42 -248.832)" fill="#ec4d37"/>
      <path id="Path_3635" data-name="Path 3635" d="M464.736,343.647l-11.075-1.875-.48,2.834,11.075,1.875-.72,4.254,2.637.446,1.92-11.341-2.637-.446Z" transform="translate(-323.031 -261.017)" fill="#ec4d37"/>
      <path id="Path_3636" data-name="Path 3636" d="M428.171,392.191l5.018,7.738-8.3-4.054-1.82,2.042,7.959,11.971,2.033-2.283-5.236-7.377,8.151,4.107,1.879-2.108-5.027-7.651,7.928,4.394,2.041-2.29-12.806-6.532Z" transform="translate(-310.186 -282.667)" fill="#ec4d37"/>
      <path id="Path_3637" data-name="Path 3637" d="M398.176,416.879l1.4,2.278,6.556-4.038,1.643,2.667-5.912,3.641,1.4,2.278,5.913-3.642,1.443,2.342-6.474,3.987,1.4,2.277,8.922-5.495-7.292-11.841Z" transform="translate(-299.568 -291.705)" fill="#ec4d37"/>
      <path id="Path_3638" data-name="Path 3638" d="M379.348,425.461a5.765,5.765,0,0,0-3.252,2.192,3.965,3.965,0,0,0-.412,3.5,3.507,3.507,0,0,0,2.3,2.418c.1.035.213.067.323.1a3.5,3.5,0,0,0-.314,2.977,3.305,3.305,0,0,0,1.933,2.174,3.944,3.944,0,0,0,1.545.3,5.45,5.45,0,0,0,1.606-.26l5.905-1.826-4.108-13.286Zm6.119,9.919-2.611.808a2.584,2.584,0,0,1-1.571.137c-.107-.038-.433-.154-.63-.792a1.357,1.357,0,0,1,.072-1.224,2.89,2.89,0,0,1,1.514-.873l2.4-.74Zm-6.245-4.09a1.188,1.188,0,0,1-.779-.915,1.67,1.67,0,0,1,.058-1.445,2.882,2.882,0,0,1,1.6-.956l2.811-.868.977,3.157-2.695.834A3.446,3.446,0,0,1,379.221,431.291Z" transform="translate(-289.878 -297.001)" fill="#ec4d37"/>
      <path id="Path_3639" data-name="Path 3639" d="M351.9,433.52a3.872,3.872,0,0,1,2.071-.559,3.727,3.727,0,0,1,2.36.513,2.114,2.114,0,0,1,.876,1.668l.046.554,2.715-.141-.036-.668a4.472,4.472,0,0,0-1.762-3.513,6.523,6.523,0,0,0-4.336-1.083,6.271,6.271,0,0,0-3.851,1.336,4.271,4.271,0,0,0-.315,5.952,5.448,5.448,0,0,0,2.912,1.28l2.249.415a5.577,5.577,0,0,1,1.847.533.69.69,0,0,1,.3.622,1.362,1.362,0,0,1-.463,1.216,3.144,3.144,0,0,1-1.844.545,3.018,3.018,0,0,1-1.925-.435,1.987,1.987,0,0,1-.807-1.424l-.076-.517-2.706.14.058.6a4.5,4.5,0,0,0,1.737,3.3,5.5,5.5,0,0,0,3.413,1.026q.218,0,.442-.011a5.554,5.554,0,0,0,3.669-1.4,4.2,4.2,0,0,0,1.27-3.409,3.213,3.213,0,0,0-1.009-2.329,5.574,5.574,0,0,0-2.739-1.121l-2.248-.414a5.381,5.381,0,0,1-1.978-.61,1.114,1.114,0,0,1-.378-.9A1.235,1.235,0,0,1,351.9,433.52Z" transform="translate(-278.421 -299.784)" fill="#ec4d37"/>
      <rect id="Rectangle_507" data-name="Rectangle 507" width="13.906" height="2.874" transform="matrix(0.145, -0.989, 0.989, 0.145, 60.81, 143.861)" fill="#ec4d37"/>
      <path id="Path_3640" data-name="Path 3640" d="M313.691,425.57l-2.717-.939-3.67,10.615-4.078-1.411-.872,2.528,10.871,3.758.874-2.527-4.077-1.41Z" transform="translate(-258.694 -297.376)" fill="#ec4d37"/>
      <path id="Path_3641" data-name="Path 3641" d="M283.782,409.3l-1.454,2.245,6.461,4.187-1.7,2.629-5.827-3.776-1.454,2.245,5.827,3.776-1.5,2.308-6.382-4.134-1.454,2.244,8.793,5.7,7.563-11.671Z" transform="translate(-247.58 -290.835)" fill="#ec4d37"/>
      <path id="Path_3642" data-name="Path 3642" d="M267.12,401.963l1.843,1.994.492-.454a4.472,4.472,0,0,0,1.573-3.6,6.5,6.5,0,0,0-1.943-4.025,6.272,6.272,0,0,0-3.491-2.1,4.27,4.27,0,0,0-4.775,3.568,5.443,5.443,0,0,0,.88,3.057l1.121,1.993a5.6,5.6,0,0,1,.774,1.76.692.692,0,0,1-.288.629,1.365,1.365,0,0,1-1.23.422,3.148,3.148,0,0,1-1.6-1.067,3.033,3.033,0,0,1-.9-1.758,1.982,1.982,0,0,1,.577-1.531l.349-.388-1.84-1.992-.422.428a4.5,4.5,0,0,0-1.42,3.444,5.72,5.72,0,0,0,1.689,3.611,5.55,5.55,0,0,0,3.425,1.921,4.139,4.139,0,0,0,.489.029,4.257,4.257,0,0,0,2.943-1.233,3.211,3.211,0,0,0,1.143-2.266,5.565,5.565,0,0,0-.891-2.822l-1.121-1.993a5.385,5.385,0,0,1-.8-1.91,1.115,1.115,0,0,1,.45-.867,1.235,1.235,0,0,1,1.214-.348,3.878,3.878,0,0,1,1.756,1.234,3.735,3.735,0,0,1,1.117,2.142,2.117,2.117,0,0,1-.721,1.74Z" transform="translate(-239.27 -284.187)" fill="#ec4d37"/>
    </g>
    <circle id="Ellipse_24" data-name="Ellipse 24" cx="6.308" cy="6.308" r="6.308" transform="translate(292.612 268.825)" fill="#ec4d37"/>
  </g>
</svg>
